#!OML:ASF F:\VICON\USERDATA\INSTALL\rory3\rory3.ASF
:FULLY-SPECIFIED
:DEGREES
72
root 0.5641351922111614 17.777135146795974 32.440229116806634 -2.944564310174761 1.6366415254186726 -1.790117276059441
lfemur 10.565790059094184 -5.071080819283887 -19.945809588158998
ltibia 43.601071445892565
lfoot 10.719828508978038 -16.621250609270827
ltoes -15.299801591894589
rfemur -25.94690443634998 4.7398481827514125 25.26751600923198
rtibia 29.63155323221411
rfoot -2.3643886409383845 -4.9231223785518825
rtoes 10.928041341311069
lowerback 9.718430252574066 -1.806316835504472 -0.9889446322573934
upperback 0.24433138419445188 -2.3711001994092387 3.0855773587242163
thorax -5.067206141078049 -1.1009990267927061 4.070533755977531
lowerneck -16.07954976587452 -2.12977277894332 -2.4405096528384633
upperneck 20.48373300838121 -2.3742071525040176 0.19569973266692253
head 9.103828803503319 -1.2765156837411262 0.13706501226597184
lclavicle -1.0207207633502793e-15 -8.563175717510482e-16
lhumerus -23.490795080790036 -1.2862506422582343 81.14461820956775
lradius 28.294594764308265
lwrist 6.910184914124541
lhand -30.358075249290284 21.488029644634363
lfingers 7.125020000000057
lthumb -3.662972195166253 51.432243733268734
rclavicle -1.0207207633502793e-15 -8.563175717510482e-16
rhumerus -41.10916872056456 -34.69108606239873 -66.3400387938513
rradius 14.687693896267298
rwrist 16.604937078828584
rhand -17.36978094301347 30.255049722482593
rfingers 7.125020000000057
rthumb 8.878990497827854 -7.114906542987933
73
root 0.5192201133517422 17.88354716498546 32.93309269682311 -3.4421264478900593 1.4505402459020211 -3.2317255628289274
lfemur 4.701552167534675 -3.9826220096431726 -17.314420829691652
ltibia 55.20150673944689
lfoot 16.669114400962926 -18.76145829444538
ltoes -9.348480279608824
rfemur -22.710337447272295 5.163882857628531 27.512261585405664
rtibia 30.410272733479164
rfoot -4.113518560290714 -5.032364301026574
rtoes 13.945189738746603
lowerback 9.898032883400152 -1.662347343470202 0.22303608673989506
upperback 0.2691207624098139 -2.031770403167225 3.359635093728267
thorax -5.200034935139586 -0.9570339973158072 3.5852113953743134
lowerneck -15.792295336951808 -2.206362805454508 -2.409626921919598
upperneck 20.56572984623886 -2.51184262094364 0.2358456455462643
head 9.075275897500996 -1.3358552058141306 0.13379797429598167
lclavicle -1.078576417551139e-15 -9.011153984516254e-16
lhumerus -24.883847206293368 -1.2908183947755776 81.86703047840842
lradius 27.461937188856524
lwrist 5.902401054165942
lhand -29.62610743912715 22.04030303450038
lfingers 7.125020000000057
lthumb -2.956109799929805 51.98816885841403
rclavicle -1.078576417551139e-15 -9.011153984516254e-16
rhumerus -40.522319378874535 -33.668570385454736 -67.40273017028471
rradius 15.022359198206608
rwrist 15.614412911427102
rhand -17.229803844155835 30.317189367733558
rfingers 7.125020000000057
rthumb 9.01404665919288 -6.714844734361108
74
root 0.4725249856536116 17.9706999804557 33.016524247010594 -3.873946405631939 1.0487658017007868 -4.374162104558837
lfemur -1.9210744602393994 -2.6033858420702956 -15.324709385235998
ltibia 64.92802252885339
lfoot 17.174084488050543 -18.44957806196135
ltoes -5.34269770352552
rfemur -19.509018193912468 5.566287599893519 29.22868809760556
rtibia 29.620277737153437
rfoot -6.668346983569089 -5.683640242757254
rtoes 14.842660275015113
lowerback 10.008637226835226 -1.406921408473746 1.1297931465981637
upperback 0.3356545669678583 -1.5849399573450471 3.431032457362458
thorax -5.279149871202946 -0.7563299570686229 2.9974784744149408
lowerneck -15.550268042065063 -2.38741582441793 -2.417678441800667
upperneck 20.548619257446028 -2.8206851584434824 0.3917210108087832
head 9.026133161525928 -1.4600764003771156 0.16016140294654357
lclavicle -1.4528952003741247e-15 -1.1909515509854982e-15
lhumerus -26.21137228801834 -1.486584010050847 82.27003073404194
lradius 25.78533346162846
lwrist 4.533252382179933
lhand -29.262322512338113 22.02101102931389
lfingers 7.125020000000055
lthumb -2.6047815418633418 51.97471066412768
rclavicle -1.4528952003741247e-15 -1.1909515509854982e-15
rhumerus -39.17194218756262 -31.82402644534097 -69.69491763908167
rradius 15.200380358832383
rwrist 13.689275385406113
rhand -17.108794720137485 30.3143699479186
rfingers 7.125020000000055
rthumb 9.13079859151235 -6.427686508329275
75
root 0.4506274863288927 18.035951010753653 33.47836247581718 -4.161428397045965 0.499060148314185 -5.078202098542247
lfemur -8.031999982940501 -1.0246450828067857 -14.011897210841017
ltibia 72.3131858146042
lfoot 12.873247919600974 -16.03675926638649
ltoes -4.507059648108378
rfemur -16.20620538121263 5.894776402870517 30.570646165670258
rtibia 28.8403343314109
rfoot -9.164277563813862 -6.29424933166144
rtoes 14.545361683604389
lowerback 10.094069446980345 -1.011556022472182 1.851009419874357
upperback 0.4305106275929171 -0.9795674662288613 3.338063797482766
thorax -5.256331755965445 -0.47704163764715224 2.3873477724185874
lowerneck -15.319560182412447 -2.5782569246759377 -2.4331428340005083
upperneck 20.589171090527394 -3.1421812167394645 0.6185941700991835
head 9.00233910432156 -1.5878109276207355 0.2085933940180265
lclavicle -1.505289124528666e-15 -1.2315203516053015e-15
lhumerus -27.22270648735239 -1.2310355485712887 82.49316101495266
lradius 24.77846677215169
lwrist 3.67458132222375
lhand -29.251613357008363 21.692071993859237
lfingers 7.125020000000055
lthumb -2.5944051565302697 51.65326465533961
rclavicle -1.505289124528666e-15 -1.2315203516053015e-15
rhumerus -37.08627223483052 -29.099887049442824 -72.30988426570971
rradius 16.282891142536627
rwrist 11.707260447542797
rhand -17.00694543832907 30.328109900004748
rfingers 7.125020000000055
rthumb 9.229101980749835 -6.4281091760347575
76
root 0.43916568308620046 18.06643785621869 33.98496692953131 -4.340246734780802 -0.23380654848036092 -5.547870296992146
lfemur -13.711249419130953 0.5380105450831816 -13.372553526346053
ltibia 76.44511131382936
lfoot 5.938052126328486 -12.704090931454598
ltoes -6.021363475725549
rfemur -13.248394587656986 6.051974923021636 31.579806591218265
rtibia 28.2081711827502
rfoot -11.60875524007228 -6.7330780266737404
rtoes 13.892377622931411
lowerback 10.12679149691479 -0.5383175161896111 2.468756528226071
upperback 0.5008591765346377 -0.2846025454076967 3.120978531929386
thorax -5.217603205251654 -0.1534063529577202 1.6904059104716171
lowerneck -15.139021203619382 -2.739844673793714 -2.437148628703245
upperneck 20.619523884404465 -3.413884230343723 0.8064865842222788
head 8.98383756107534 -1.6945423758968041 0.24681997230091607
lclavicle -1.596351653770035e-15 -1.302030325189284e-15
lhumerus -28.362361110623773 -0.48761195638357213 82.47200499737039
lradius 24.005795237769384
lwrist 3.4203299677559666
lhand -29.516681594050695 20.959493905036254
lfingers 7.125020000000055
lthumb -2.850348540490405 50.92817490159896
rclavicle -1.596351653770035e-15 -1.302030325189284e-15
rhumerus -34.87092879813726 -26.0550222914359 -74.98444646259993
rradius 17.6672725425948
rwrist 9.615875021068991
rhand -17.000623985422163 30.1406133177772
rfingers 7.125020000000055
rthumb 9.235256413432184 -6.95988369094591
77
root 0.44163134225003303 18.068461317812396 34.896827574547466 -4.315877304925668 -0.9934610003330537 -5.921512578460334
lfemur -18.627941451087523 1.8793461809675522 -13.058977625371359
ltibia 77.2593142600193
lfoot -0.5958226675019169 -9.1111698287195
ltoes -7.743297220307832
rfemur -10.283174789943171 6.159227262610704 32.50025483745776
rtibia 28.085276170208786
rfoot -13.718645782582817 -6.976808579239231
rtoes 13.582563749893573
lowerback 10.17324212435334 -0.019333541915124375 3.2106899665284514
upperback 0.531177056895306 0.48656582690323036 2.8718936946282856
thorax -5.1770782079353435 0.20312211034337052 0.9255439287151969
lowerneck -15.041798299425828 -2.8392217917698934 -2.407743493557418
upperneck 20.626101275487148 -3.5832062580973503 0.9507351336214108
head 8.97195719283347 -1.7591909185114687 0.2732270210435461
lclavicle -1.4302316662538787e-15 -1.1734031055557591e-15
lhumerus -29.561179850685967 0.7394010433475171 82.36481245157364
lradius 24.118731980757204
lwrist 3.9452034934383686
lhand -29.800157712666014 20.235349645246355
lfingers 7.125020000000055
lthumb -3.124082292061684 50.209332928955696
rclavicle -1.4302316662538787e-15 -1.1734031055557591e-15
rhumerus -32.51119369243789 -22.538350907141172 -77.31333102877993
rradius 20.101013344413047
rwrist 7.420805702887839
rhand -17.071696228781242 29.900301116881995
rfingers 7.125020000000055
rthumb 9.166703730692552 -7.577332665366892
78
root 0.43859060409973405 18.04029042820868 35.56214780425312 -4.086007512097528 -1.783929515677797 -6.404592104302035
lfemur -23.05652359128729 2.6792023228486066 -12.814378344382895
ltibia 74.10478647712213
lfoot -5.143808402516051 -5.610895168130316
ltoes -8.499035001261623
rfemur -7.528681518840534 6.256240503684447 33.36328958031044
rtibia 27.73993643179727
rfoot -15.749643141983674 -7.249806197881458
rtoes 13.599785291253909
lowerback 10.20365074511957 0.46794902774291636 4.075349801011251
upperback 0.5206794125415908 1.2334680925006234 2.6458023789023732
thorax -5.1699075455492105 0.5446272316026439 0.08892645825475942
lowerneck -15.101329548787138 -2.894348702684092 -2.3522348694105784
upperneck 20.45507571701794 -3.6797566591930195 1.0139777032839492
head 8.925879534281396 -1.7936564605493017 0.27549126641977517
lclavicle -1.4170481932986366e-15 -1.1631950558128803e-15
lhumerus -30.95489795235256 2.135111794281725 82.06183483938644
lradius 24.01105558827939
lwrist 4.554351095019966
lhand -30.065894943404963 19.558535356845727
lfingers 7.125020000000056
lthumb -3.3807055955200145 49.53411062474797
rclavicle -1.4170481932986366e-15 -1.1631950558128803e-15
rhumerus -30.212984729490653 -19.07744264267249 -79.32576554630319
rradius 22.605247749319027
rwrist 4.926457045226155
rhand -17.227155828433276 29.728474430296195
rfingers 7.125020000000056
rthumb 9.016668657763752 -7.991960418400678
79
root 0.4399266547111488 17.994093767943053 36.18509151922632 -3.594420947881372 -2.5002324050108076 -6.955493309670789
lfemur -26.408701120720018 2.662113244893865 -12.247349052812604
ltibia 67.25155271618692
lfoot -7.170659019755693 -2.0722810421114874
ltoes -7.995721906864728
rfemur -4.654326966482129 6.452542592428674 34.25789599619994
rtibia 27.123069113722856
rfoot -17.60110247981916 -7.613515291732315
rtoes 13.674276890659703
lowerback 10.225172432105456 0.9134356036044147 5.051173542171975
upperback 0.497878236763507 1.9380297560548139 2.4959167040278056
thorax -5.133009613983548 0.8632805037593068 -0.697647795876868
lowerneck -15.30223142445102 -2.9098482443119926 -2.268806081642567
upperneck 20.14933135316309 -3.708984322499224 1.032537840188066
head 8.858418141009217 -1.8014590775332768 0.2634924043612608
lclavicle -1.253593990282058e-15 -1.036631969650755e-15
lhumerus -32.18304107133722 3.655816332119813 81.68709670717024
lradius 23.95476647428999
lwrist 5.010610222017711
lhand -30.25307092682548 19.219869985259407
lfingers 7.125020000000056
lthumb -3.5614763306209856 49.19393501359499
rclavicle -1.253593990282058e-15 -1.036631969650755e-15
rhumerus -27.75627943107088 -15.692611149894878 -80.7646804557601
rradius 25.394256647523477
rwrist 2.4824305178464305
rhand -17.403120765967383 29.78724169191337
rfingers 7.125020000000056
rthumb 8.846832455068297 -7.881946702207801
